<svg width="25" height="25" viewBox="0 0 25 25" fill="none" xmlns="http://www.w3.org/2000/svg">
<path fill-rule="evenodd" clip-rule="evenodd" d="M25 12.7841C25 11.8978 24.9189 11.0455 24.7681 10.2273H12.7551V15.0625H19.6197C19.324 16.625 18.4254 17.9489 17.0745 18.8353V21.9716H21.1967C23.6086 19.7955 25 16.5909 25 12.7841Z" fill="#4285F4"/>
<path fill-rule="evenodd" clip-rule="evenodd" d="M12.7551 25C16.199 25 19.0863 23.8807 21.1967 21.9716L17.0745 18.8352C15.9323 19.5852 14.4713 20.0284 12.7551 20.0284C9.43299 20.0284 6.62107 17.8295 5.61805 14.875H1.35669V18.1136C3.45548 22.1989 7.76903 25 12.7551 25Z" fill="#34A853"/>
<path fill-rule="evenodd" clip-rule="evenodd" d="M5.61804 14.875C5.36294 14.125 5.218 13.3239 5.218 12.5C5.218 11.6761 5.36294 10.875 5.61804 10.125V6.88635H1.35668C0.492811 8.57385 0 10.4829 0 12.5C0 14.517 0.492811 16.4261 1.35668 18.1136L5.61804 14.875Z" fill="#FBBC05"/>
<path fill-rule="evenodd" clip-rule="evenodd" d="M12.7551 4.9716C14.6278 4.9716 16.3092 5.60228 17.631 6.84092L21.2894 3.25568C19.0805 1.23864 16.1932 0 12.7551 0C7.76903 0 3.45548 2.80114 1.35669 6.88637L5.61805 10.125C6.62107 7.17046 9.43299 4.9716 12.7551 4.9716Z" fill="#EA4335"/>
</svg>
