<svg width="40" height="40" viewBox="0 0 40 40" fill="none" xmlns="http://www.w3.org/2000/svg">
<path fill-rule="evenodd" clip-rule="evenodd" d="M26.3493 14.5742C24.606 14.1692 22.5043 13.9842 19.9993 13.9842C17.4943 13.9842 15.3926 14.1692 13.6493 14.5742V12.1875C13.7043 8.73082 16.456 5.98915 19.916 5.94415C21.6343 5.89749 23.2193 6.56415 24.4343 7.74915C25.6476 8.93415 26.3293 10.5192 26.3493 12.2008V14.5742ZM21.2493 27.4058C21.2493 28.0958 20.6893 28.6558 19.9993 28.6558C19.3093 28.6558 18.7493 28.0958 18.7493 27.4058V23.7042C18.7493 23.0142 19.3093 22.4542 19.9993 22.4542C20.6893 22.4542 21.2493 23.0142 21.2493 23.7042V27.4058ZM28.8493 15.4292V12.1858C28.8193 9.82082 27.8726 7.60915 26.1776 5.95915C24.486 4.30915 22.2293 3.49082 19.8826 3.44415C15.0643 3.50582 11.2276 7.32915 11.1493 12.1692V15.4308C7.75929 17.0475 6.39929 20.1325 6.39929 25.2692C6.39929 33.6025 9.95929 36.5558 19.9993 36.5558C30.041 36.5558 33.601 33.6025 33.601 25.2692C33.601 20.1325 32.2393 17.0458 28.8493 15.4292Z" fill="black"/>
</svg>
